<?xml version="1.0" standalone="no"?>
<!DOCTYPE svg PUBLIC "-//W3C//DTD SVG 20010904//EN"
 "http://www.w3.org/TR/2001/REC-SVG-20010904/DTD/svg10.dtd">
<svg version="1.0" xmlns="http://www.w3.org/2000/svg"
 width="512.000000pt" height="512.000000pt" viewBox="0 0 512.000000 512.000000"
 preserveAspectRatio="xMidYMid meet">
<metadata>
Created by potrace 1.11, written by Peter Selinger 2001-2013
</metadata>
<g transform="translate(0.000000,512.000000) scale(0.100000,-0.100000)"
fill="#000000" stroke="none">
<path d="M2408 5105 c-2 -2 -39 -6 -83 -10 -118 -10 -143 -14 -270 -41 -38 -8
-81 -17 -95 -20 -14 -3 -70 -19 -125 -36 -738 -229 -1349 -806 -1648 -1558
-40 -101 -82 -225 -92 -270 -2 -8 -10 -43 -19 -77 -20 -76 -34 -151 -42 -218
-4 -27 -8 -52 -9 -55 -9 -16 -19 -195 -19 -335 0 -143 3 -189 18 -315 22 -189
77 -397 155 -592 28 -71 134 -286 164 -333 101 -160 184 -275 266 -370 107
-125 267 -277 381 -364 30 -22 61 -46 67 -51 50 -42 221 -142 338 -199 159
-78 350 -149 469 -176 167 -37 182 -40 326 -60 106 -14 493 -18 580 -5 30 5
78 11 105 14 144 16 444 92 565 143 8 3 17 7 20 8 3 1 14 5 25 10 11 4 34 12
50 19 85 31 354 174 451 239 186 123 388 297 528 455 54 61 194 250 240 324
59 94 184 345 190 380 1 3 4 10 9 14 4 4 7 14 7 22 0 8 6 28 14 45 33 73 100
333 112 437 3 30 8 58 10 61 8 15 18 198 18 344 0 176 -7 286 -29 417 -104
619 -449 1204 -942 1595 -99 79 -247 183 -260 183 -3 0 -14 6 -22 14 -22 20
-235 130 -302 156 -30 12 -67 27 -84 35 -55 23 -259 89 -312 100 -166 34 -255
49 -363 61 -57 6 -387 14 -392 9z"/>
</g>
</svg>
